<mxfile host="app.diagrams.net" agent="Mozilla/5.0 (Windows NT 10.0; Win64; x64) AppleWebKit/537.36 (KHTML, like Gecko) Chrome/132.0.0.0 Safari/537.36 OPR/117.0.0.0" version="26.2.14">
  <diagram name="Página-1" id="hiymmgwpa71CDA5DZezR">
    <mxGraphModel grid="1" page="1" gridSize="10" guides="1" tooltips="1" connect="1" arrows="1" fold="1" pageScale="1" pageWidth="827" pageHeight="1169" math="0" shadow="0">
      <root>
        <mxCell id="0" />
        <mxCell id="1" parent="0" />
        <mxCell id="VhcnRzQDHe9ZI1hMgf6_-1" style="edgeStyle=orthogonalEdgeStyle;rounded=0;orthogonalLoop=1;jettySize=auto;html=1;entryX=0;entryY=0.5;entryDx=0;entryDy=0;fillColor=light-dark(transparent,#CC0000);strokeColor=light-dark(#000000,#CC0000);" edge="1" parent="1" source="VhcnRzQDHe9ZI1hMgf6_-2" target="VhcnRzQDHe9ZI1hMgf6_-4">
          <mxGeometry relative="1" as="geometry" />
        </mxCell>
        <mxCell id="VhcnRzQDHe9ZI1hMgf6_-2" value="Inicio" style="ellipse;whiteSpace=wrap;html=1;fillColor=light-dark(#FFFFFF,#660000);" vertex="1" parent="1">
          <mxGeometry x="280" y="518" width="120" height="80" as="geometry" />
        </mxCell>
        <mxCell id="VhcnRzQDHe9ZI1hMgf6_-3" style="edgeStyle=orthogonalEdgeStyle;rounded=0;orthogonalLoop=1;jettySize=auto;html=1;entryX=0;entryY=0.5;entryDx=0;entryDy=0;fillColor=light-dark(transparent,#CC0000);strokeColor=light-dark(#000000,#CC0000);" edge="1" parent="1" source="VhcnRzQDHe9ZI1hMgf6_-4" target="VhcnRzQDHe9ZI1hMgf6_-6">
          <mxGeometry relative="1" as="geometry" />
        </mxCell>
        <mxCell id="VhcnRzQDHe9ZI1hMgf6_-4" value="&lt;div&gt;Pensamiento del Problema&lt;/div&gt;" style="ellipse;whiteSpace=wrap;html=1;fillColor=light-dark(#FFFFFF,#660000);" vertex="1" parent="1">
          <mxGeometry x="434" y="518" width="120" height="80" as="geometry" />
        </mxCell>
        <mxCell id="VhcnRzQDHe9ZI1hMgf6_-5" style="edgeStyle=orthogonalEdgeStyle;rounded=0;orthogonalLoop=1;jettySize=auto;html=1;entryX=0;entryY=0.5;entryDx=0;entryDy=0;fillColor=light-dark(transparent,#CC0000);strokeColor=light-dark(#000000,#CC0000);" edge="1" parent="1" source="VhcnRzQDHe9ZI1hMgf6_-6" target="VhcnRzQDHe9ZI1hMgf6_-8">
          <mxGeometry relative="1" as="geometry" />
        </mxCell>
        <mxCell id="VhcnRzQDHe9ZI1hMgf6_-6" value="&lt;div&gt;Entrevistas&lt;/div&gt;" style="ellipse;whiteSpace=wrap;html=1;fillColor=light-dark(#FFFFFF,#660000);" vertex="1" parent="1">
          <mxGeometry x="588" y="518" width="120" height="80" as="geometry" />
        </mxCell>
        <mxCell id="VhcnRzQDHe9ZI1hMgf6_-7" style="edgeStyle=orthogonalEdgeStyle;rounded=0;orthogonalLoop=1;jettySize=auto;html=1;entryX=0;entryY=0.5;entryDx=0;entryDy=0;fillColor=light-dark(transparent,#CC0000);strokeColor=light-dark(#000000,#CC0000);" edge="1" parent="1" source="VhcnRzQDHe9ZI1hMgf6_-8" target="VhcnRzQDHe9ZI1hMgf6_-10">
          <mxGeometry relative="1" as="geometry" />
        </mxCell>
        <mxCell id="VhcnRzQDHe9ZI1hMgf6_-8" value="&lt;div&gt;Encuestas&lt;/div&gt;" style="ellipse;whiteSpace=wrap;html=1;fillColor=light-dark(#FFFFFF,#660000);" vertex="1" parent="1">
          <mxGeometry x="742" y="518" width="120" height="80" as="geometry" />
        </mxCell>
        <mxCell id="VhcnRzQDHe9ZI1hMgf6_-9" style="edgeStyle=orthogonalEdgeStyle;rounded=0;orthogonalLoop=1;jettySize=auto;html=1;entryX=0;entryY=0.5;entryDx=0;entryDy=0;fillColor=light-dark(transparent,#CC0000);strokeColor=light-dark(#000000,#CC0000);" edge="1" parent="1" source="VhcnRzQDHe9ZI1hMgf6_-10" target="VhcnRzQDHe9ZI1hMgf6_-14">
          <mxGeometry relative="1" as="geometry" />
        </mxCell>
        <mxCell id="VhcnRzQDHe9ZI1hMgf6_-10" value="&lt;div&gt;Hacer diagramas&lt;/div&gt;" style="ellipse;whiteSpace=wrap;html=1;fillColor=light-dark(#FFFFFF,#660000);" vertex="1" parent="1">
          <mxGeometry x="896" y="518" width="120" height="80" as="geometry" />
        </mxCell>
        <mxCell id="VhcnRzQDHe9ZI1hMgf6_-11" style="edgeStyle=orthogonalEdgeStyle;rounded=0;orthogonalLoop=1;jettySize=auto;html=1;exitX=1;exitY=0;exitDx=0;exitDy=0;entryX=0;entryY=0.5;entryDx=0;entryDy=0;" edge="1" parent="1" source="VhcnRzQDHe9ZI1hMgf6_-14" target="VhcnRzQDHe9ZI1hMgf6_-18">
          <mxGeometry relative="1" as="geometry">
            <Array as="points">
              <mxPoint x="1167" y="530" />
              <mxPoint x="1167" y="403" />
            </Array>
          </mxGeometry>
        </mxCell>
        <mxCell id="VhcnRzQDHe9ZI1hMgf6_-12" style="edgeStyle=orthogonalEdgeStyle;rounded=0;orthogonalLoop=1;jettySize=auto;html=1;exitX=1;exitY=1;exitDx=0;exitDy=0;entryX=0;entryY=0.5;entryDx=0;entryDy=0;fillColor=light-dark(transparent,#CC0000);strokeColor=light-dark(#000000,#CC0000);" edge="1" parent="1" source="VhcnRzQDHe9ZI1hMgf6_-14" target="VhcnRzQDHe9ZI1hMgf6_-16">
          <mxGeometry relative="1" as="geometry">
            <Array as="points">
              <mxPoint x="1170" y="586" />
              <mxPoint x="1170" y="702" />
            </Array>
          </mxGeometry>
        </mxCell>
        <mxCell id="VhcnRzQDHe9ZI1hMgf6_-13" style="edgeStyle=orthogonalEdgeStyle;rounded=0;orthogonalLoop=1;jettySize=auto;html=1;entryX=0;entryY=0.5;entryDx=0;entryDy=0;" edge="1" parent="1" source="VhcnRzQDHe9ZI1hMgf6_-14" target="VhcnRzQDHe9ZI1hMgf6_-29">
          <mxGeometry relative="1" as="geometry" />
        </mxCell>
        <mxCell id="VhcnRzQDHe9ZI1hMgf6_-14" value="&lt;div&gt;Desarrollo del plan del desarrollo&lt;/div&gt;" style="ellipse;whiteSpace=wrap;html=1;fillColor=light-dark(#FFFFFF,#660000);" vertex="1" parent="1">
          <mxGeometry x="1050" y="518" width="120" height="80" as="geometry" />
        </mxCell>
        <mxCell id="VhcnRzQDHe9ZI1hMgf6_-15" style="edgeStyle=orthogonalEdgeStyle;rounded=0;orthogonalLoop=1;jettySize=auto;html=1;entryX=0;entryY=1;entryDx=0;entryDy=0;fillColor=light-dark(transparent,#CC0000);strokeColor=light-dark(#000000,#CC0000);" edge="1" parent="1" source="VhcnRzQDHe9ZI1hMgf6_-16" target="VhcnRzQDHe9ZI1hMgf6_-109">
          <mxGeometry relative="1" as="geometry" />
        </mxCell>
        <mxCell id="VhcnRzQDHe9ZI1hMgf6_-16" value="Fecha de Entrega Aprox" style="ellipse;whiteSpace=wrap;html=1;fillColor=light-dark(#FFFFFF,#660000);" vertex="1" parent="1">
          <mxGeometry x="1201" y="662" width="120" height="80" as="geometry" />
        </mxCell>
        <mxCell id="VhcnRzQDHe9ZI1hMgf6_-17" style="edgeStyle=orthogonalEdgeStyle;rounded=0;orthogonalLoop=1;jettySize=auto;html=1;entryX=0;entryY=0.5;entryDx=0;entryDy=0;" edge="1" parent="1" source="VhcnRzQDHe9ZI1hMgf6_-18" target="VhcnRzQDHe9ZI1hMgf6_-20">
          <mxGeometry relative="1" as="geometry" />
        </mxCell>
        <mxCell id="VhcnRzQDHe9ZI1hMgf6_-18" value="&lt;div&gt;Diseño UX/UI&lt;/div&gt;" style="ellipse;whiteSpace=wrap;html=1;" vertex="1" parent="1">
          <mxGeometry x="1201" y="363.06999999999994" width="120" height="80" as="geometry" />
        </mxCell>
        <mxCell id="VhcnRzQDHe9ZI1hMgf6_-19" style="edgeStyle=orthogonalEdgeStyle;rounded=0;orthogonalLoop=1;jettySize=auto;html=1;entryX=0;entryY=0;entryDx=0;entryDy=0;" edge="1" parent="1" source="VhcnRzQDHe9ZI1hMgf6_-20" target="VhcnRzQDHe9ZI1hMgf6_-109">
          <mxGeometry relative="1" as="geometry">
            <Array as="points">
              <mxPoint x="1815" y="403" />
            </Array>
          </mxGeometry>
        </mxCell>
        <mxCell id="VhcnRzQDHe9ZI1hMgf6_-20" value="&lt;div&gt;Desarrollo de la pagina&lt;/div&gt;" style="ellipse;whiteSpace=wrap;html=1;" vertex="1" parent="1">
          <mxGeometry x="1392" y="363.06999999999994" width="120" height="80" as="geometry" />
        </mxCell>
        <mxCell id="VhcnRzQDHe9ZI1hMgf6_-21" value="5d" style="text;html=1;align=center;verticalAlign=middle;whiteSpace=wrap;rounded=0;" vertex="1" parent="1">
          <mxGeometry x="464" y="608" width="60" height="30" as="geometry" />
        </mxCell>
        <mxCell id="VhcnRzQDHe9ZI1hMgf6_-22" value="3d" style="text;html=1;align=center;verticalAlign=middle;whiteSpace=wrap;rounded=0;" vertex="1" parent="1">
          <mxGeometry x="621" y="608" width="60" height="30" as="geometry" />
        </mxCell>
        <mxCell id="VhcnRzQDHe9ZI1hMgf6_-23" value="7d" style="text;html=1;align=center;verticalAlign=middle;whiteSpace=wrap;rounded=0;" vertex="1" parent="1">
          <mxGeometry x="772" y="608" width="60" height="30" as="geometry" />
        </mxCell>
        <mxCell id="VhcnRzQDHe9ZI1hMgf6_-24" value="5d" style="text;html=1;align=center;verticalAlign=middle;whiteSpace=wrap;rounded=0;" vertex="1" parent="1">
          <mxGeometry x="926" y="608" width="60" height="30" as="geometry" />
        </mxCell>
        <mxCell id="VhcnRzQDHe9ZI1hMgf6_-25" value="2d" style="text;html=1;align=center;verticalAlign=middle;whiteSpace=wrap;rounded=0;" vertex="1" parent="1">
          <mxGeometry x="1075.5" y="608" width="60" height="30" as="geometry" />
        </mxCell>
        <mxCell id="VhcnRzQDHe9ZI1hMgf6_-26" value="25d" style="text;html=1;align=center;verticalAlign=middle;whiteSpace=wrap;rounded=0;" vertex="1" parent="1">
          <mxGeometry x="1235" y="753" width="60" height="30" as="geometry" />
        </mxCell>
        <mxCell id="VhcnRzQDHe9ZI1hMgf6_-27" value="10d" style="text;html=1;align=center;verticalAlign=middle;whiteSpace=wrap;rounded=0;" vertex="1" parent="1">
          <mxGeometry x="1231" y="449" width="60" height="30" as="geometry" />
        </mxCell>
        <mxCell id="VhcnRzQDHe9ZI1hMgf6_-28" style="edgeStyle=orthogonalEdgeStyle;rounded=0;orthogonalLoop=1;jettySize=auto;html=1;entryX=0;entryY=0.5;entryDx=0;entryDy=0;" edge="1" parent="1" source="VhcnRzQDHe9ZI1hMgf6_-29" target="VhcnRzQDHe9ZI1hMgf6_-31">
          <mxGeometry relative="1" as="geometry" />
        </mxCell>
        <mxCell id="VhcnRzQDHe9ZI1hMgf6_-29" value="&lt;div&gt;Diseño De la BD&lt;/div&gt;" style="ellipse;whiteSpace=wrap;html=1;" vertex="1" parent="1">
          <mxGeometry x="1295" y="518" width="120" height="80" as="geometry" />
        </mxCell>
        <mxCell id="VhcnRzQDHe9ZI1hMgf6_-30" style="edgeStyle=orthogonalEdgeStyle;rounded=0;orthogonalLoop=1;jettySize=auto;html=1;entryX=0;entryY=0.5;entryDx=0;entryDy=0;" edge="1" parent="1" source="VhcnRzQDHe9ZI1hMgf6_-31" target="VhcnRzQDHe9ZI1hMgf6_-33">
          <mxGeometry relative="1" as="geometry" />
        </mxCell>
        <mxCell id="VhcnRzQDHe9ZI1hMgf6_-31" value="&lt;div&gt;Creacion de la BD&lt;/div&gt;" style="ellipse;whiteSpace=wrap;html=1;" vertex="1" parent="1">
          <mxGeometry x="1463.05" y="518" width="120" height="80" as="geometry" />
        </mxCell>
        <mxCell id="VhcnRzQDHe9ZI1hMgf6_-32" style="edgeStyle=orthogonalEdgeStyle;rounded=0;orthogonalLoop=1;jettySize=auto;html=1;entryX=0;entryY=0.5;entryDx=0;entryDy=0;" edge="1" parent="1" source="VhcnRzQDHe9ZI1hMgf6_-33" target="VhcnRzQDHe9ZI1hMgf6_-109">
          <mxGeometry relative="1" as="geometry" />
        </mxCell>
        <mxCell id="VhcnRzQDHe9ZI1hMgf6_-33" value="&lt;div&gt;Desarrollo del gestionador&lt;/div&gt;" style="ellipse;whiteSpace=wrap;html=1;" vertex="1" parent="1">
          <mxGeometry x="1631" y="518" width="120" height="80" as="geometry" />
        </mxCell>
        <mxCell id="VhcnRzQDHe9ZI1hMgf6_-34" value="14d" style="text;html=1;align=center;verticalAlign=middle;whiteSpace=wrap;rounded=0;" vertex="1" parent="1">
          <mxGeometry x="1428" y="449" width="60" height="30" as="geometry" />
        </mxCell>
        <mxCell id="VhcnRzQDHe9ZI1hMgf6_-35" value="2d" style="text;html=1;align=center;verticalAlign=middle;whiteSpace=wrap;rounded=0;" vertex="1" parent="1">
          <mxGeometry x="1332" y="612" width="60" height="30" as="geometry" />
        </mxCell>
        <mxCell id="VhcnRzQDHe9ZI1hMgf6_-36" value="2d" style="text;html=1;align=center;verticalAlign=middle;whiteSpace=wrap;rounded=0;" vertex="1" parent="1">
          <mxGeometry x="1496" y="608" width="60" height="30" as="geometry" />
        </mxCell>
        <mxCell id="VhcnRzQDHe9ZI1hMgf6_-37" value="8d" style="text;html=1;align=center;verticalAlign=middle;whiteSpace=wrap;rounded=0;" vertex="1" parent="1">
          <mxGeometry x="1667" y="614" width="60" height="26" as="geometry" />
        </mxCell>
        <mxCell id="VhcnRzQDHe9ZI1hMgf6_-38" value="" style="endArrow=none;html=1;rounded=0;" edge="1" parent="1">
          <mxGeometry width="50" height="50" relative="1" as="geometry">
            <mxPoint x="341.5" y="496" as="sourcePoint" />
            <mxPoint x="341.5" y="435" as="targetPoint" />
          </mxGeometry>
        </mxCell>
        <mxCell id="VhcnRzQDHe9ZI1hMgf6_-39" value="" style="endArrow=none;html=1;rounded=0;" edge="1" parent="1">
          <mxGeometry width="50" height="50" relative="1" as="geometry">
            <mxPoint x="300.5" y="467" as="sourcePoint" />
            <mxPoint x="385.5" y="467" as="targetPoint" />
          </mxGeometry>
        </mxCell>
        <mxCell id="VhcnRzQDHe9ZI1hMgf6_-40" value="0" style="text;html=1;align=center;verticalAlign=middle;whiteSpace=wrap;rounded=0;" vertex="1" parent="1">
          <mxGeometry x="287.5" y="434" width="60" height="30" as="geometry" />
        </mxCell>
        <mxCell id="VhcnRzQDHe9ZI1hMgf6_-41" value="0" style="text;html=1;align=center;verticalAlign=middle;whiteSpace=wrap;rounded=0;" vertex="1" parent="1">
          <mxGeometry x="332.5" y="434" width="60" height="30" as="geometry" />
        </mxCell>
        <mxCell id="VhcnRzQDHe9ZI1hMgf6_-42" value="0" style="text;html=1;align=center;verticalAlign=middle;whiteSpace=wrap;rounded=0;" vertex="1" parent="1">
          <mxGeometry x="289.5" y="472" width="60" height="30" as="geometry" />
        </mxCell>
        <mxCell id="VhcnRzQDHe9ZI1hMgf6_-43" value="0" style="text;html=1;align=center;verticalAlign=middle;whiteSpace=wrap;rounded=0;" vertex="1" parent="1">
          <mxGeometry x="332.5" y="472" width="60" height="30" as="geometry" />
        </mxCell>
        <mxCell id="VhcnRzQDHe9ZI1hMgf6_-44" value="" style="endArrow=none;html=1;rounded=0;" edge="1" parent="1">
          <mxGeometry width="50" height="50" relative="1" as="geometry">
            <mxPoint x="500" y="496" as="sourcePoint" />
            <mxPoint x="500" y="435" as="targetPoint" />
          </mxGeometry>
        </mxCell>
        <mxCell id="VhcnRzQDHe9ZI1hMgf6_-45" value="" style="endArrow=none;html=1;rounded=0;" edge="1" parent="1">
          <mxGeometry width="50" height="50" relative="1" as="geometry">
            <mxPoint x="459" y="467" as="sourcePoint" />
            <mxPoint x="544" y="467" as="targetPoint" />
          </mxGeometry>
        </mxCell>
        <mxCell id="VhcnRzQDHe9ZI1hMgf6_-46" value="0" style="text;html=1;align=center;verticalAlign=middle;whiteSpace=wrap;rounded=0;" vertex="1" parent="1">
          <mxGeometry x="446" y="434" width="60" height="30" as="geometry" />
        </mxCell>
        <mxCell id="VhcnRzQDHe9ZI1hMgf6_-47" value="5" style="text;html=1;align=center;verticalAlign=middle;whiteSpace=wrap;rounded=0;" vertex="1" parent="1">
          <mxGeometry x="491" y="434" width="60" height="30" as="geometry" />
        </mxCell>
        <mxCell id="VhcnRzQDHe9ZI1hMgf6_-48" value="0" style="text;html=1;align=center;verticalAlign=middle;whiteSpace=wrap;rounded=0;" vertex="1" parent="1">
          <mxGeometry x="448" y="472" width="60" height="30" as="geometry" />
        </mxCell>
        <mxCell id="VhcnRzQDHe9ZI1hMgf6_-49" value="5" style="text;html=1;align=center;verticalAlign=middle;whiteSpace=wrap;rounded=0;" vertex="1" parent="1">
          <mxGeometry x="491" y="472" width="60" height="30" as="geometry" />
        </mxCell>
        <mxCell id="VhcnRzQDHe9ZI1hMgf6_-50" value="" style="endArrow=none;html=1;rounded=0;" edge="1" parent="1">
          <mxGeometry width="50" height="50" relative="1" as="geometry">
            <mxPoint x="643.05" y="496" as="sourcePoint" />
            <mxPoint x="643.05" y="435" as="targetPoint" />
          </mxGeometry>
        </mxCell>
        <mxCell id="VhcnRzQDHe9ZI1hMgf6_-51" value="" style="endArrow=none;html=1;rounded=0;" edge="1" parent="1">
          <mxGeometry width="50" height="50" relative="1" as="geometry">
            <mxPoint x="602.05" y="467" as="sourcePoint" />
            <mxPoint x="687.05" y="467" as="targetPoint" />
          </mxGeometry>
        </mxCell>
        <mxCell id="VhcnRzQDHe9ZI1hMgf6_-52" value="5" style="text;html=1;align=center;verticalAlign=middle;whiteSpace=wrap;rounded=0;" vertex="1" parent="1">
          <mxGeometry x="589.05" y="434" width="60" height="30" as="geometry" />
        </mxCell>
        <mxCell id="VhcnRzQDHe9ZI1hMgf6_-53" value="8" style="text;html=1;align=center;verticalAlign=middle;whiteSpace=wrap;rounded=0;" vertex="1" parent="1">
          <mxGeometry x="634.05" y="434" width="60" height="30" as="geometry" />
        </mxCell>
        <mxCell id="VhcnRzQDHe9ZI1hMgf6_-54" value="5" style="text;html=1;align=center;verticalAlign=middle;whiteSpace=wrap;rounded=0;" vertex="1" parent="1">
          <mxGeometry x="591.05" y="472" width="60" height="30" as="geometry" />
        </mxCell>
        <mxCell id="VhcnRzQDHe9ZI1hMgf6_-55" value="8" style="text;html=1;align=center;verticalAlign=middle;whiteSpace=wrap;rounded=0;" vertex="1" parent="1">
          <mxGeometry x="634.05" y="472" width="60" height="30" as="geometry" />
        </mxCell>
        <mxCell id="VhcnRzQDHe9ZI1hMgf6_-56" value="" style="endArrow=none;html=1;rounded=0;" edge="1" parent="1">
          <mxGeometry width="50" height="50" relative="1" as="geometry">
            <mxPoint x="803.5" y="496" as="sourcePoint" />
            <mxPoint x="803.5" y="435" as="targetPoint" />
          </mxGeometry>
        </mxCell>
        <mxCell id="VhcnRzQDHe9ZI1hMgf6_-57" value="" style="endArrow=none;html=1;rounded=0;" edge="1" parent="1">
          <mxGeometry width="50" height="50" relative="1" as="geometry">
            <mxPoint x="762.5" y="467" as="sourcePoint" />
            <mxPoint x="847.5" y="467" as="targetPoint" />
          </mxGeometry>
        </mxCell>
        <mxCell id="VhcnRzQDHe9ZI1hMgf6_-58" value="8" style="text;html=1;align=center;verticalAlign=middle;whiteSpace=wrap;rounded=0;" vertex="1" parent="1">
          <mxGeometry x="749.5" y="434" width="60" height="30" as="geometry" />
        </mxCell>
        <mxCell id="VhcnRzQDHe9ZI1hMgf6_-59" value="15" style="text;html=1;align=center;verticalAlign=middle;whiteSpace=wrap;rounded=0;" vertex="1" parent="1">
          <mxGeometry x="794.5" y="434" width="60" height="30" as="geometry" />
        </mxCell>
        <mxCell id="VhcnRzQDHe9ZI1hMgf6_-60" value="8" style="text;html=1;align=center;verticalAlign=middle;whiteSpace=wrap;rounded=0;" vertex="1" parent="1">
          <mxGeometry x="751.5" y="472" width="60" height="30" as="geometry" />
        </mxCell>
        <mxCell id="VhcnRzQDHe9ZI1hMgf6_-61" value="15" style="text;html=1;align=center;verticalAlign=middle;whiteSpace=wrap;rounded=0;" vertex="1" parent="1">
          <mxGeometry x="794.5" y="472" width="60" height="30" as="geometry" />
        </mxCell>
        <mxCell id="VhcnRzQDHe9ZI1hMgf6_-62" value="" style="endArrow=none;html=1;rounded=0;" edge="1" parent="1">
          <mxGeometry width="50" height="50" relative="1" as="geometry">
            <mxPoint x="957.5" y="502" as="sourcePoint" />
            <mxPoint x="957.5" y="441" as="targetPoint" />
          </mxGeometry>
        </mxCell>
        <mxCell id="VhcnRzQDHe9ZI1hMgf6_-63" value="" style="endArrow=none;html=1;rounded=0;" edge="1" parent="1">
          <mxGeometry width="50" height="50" relative="1" as="geometry">
            <mxPoint x="916.5" y="473" as="sourcePoint" />
            <mxPoint x="1001.5" y="473" as="targetPoint" />
          </mxGeometry>
        </mxCell>
        <mxCell id="VhcnRzQDHe9ZI1hMgf6_-64" value="15" style="text;html=1;align=center;verticalAlign=middle;whiteSpace=wrap;rounded=0;" vertex="1" parent="1">
          <mxGeometry x="903.5" y="440" width="60" height="30" as="geometry" />
        </mxCell>
        <mxCell id="VhcnRzQDHe9ZI1hMgf6_-65" value="20" style="text;html=1;align=center;verticalAlign=middle;whiteSpace=wrap;rounded=0;" vertex="1" parent="1">
          <mxGeometry x="948.5" y="440" width="60" height="30" as="geometry" />
        </mxCell>
        <mxCell id="VhcnRzQDHe9ZI1hMgf6_-66" value="15" style="text;html=1;align=center;verticalAlign=middle;whiteSpace=wrap;rounded=0;" vertex="1" parent="1">
          <mxGeometry x="905.5" y="478" width="60" height="30" as="geometry" />
        </mxCell>
        <mxCell id="VhcnRzQDHe9ZI1hMgf6_-67" value="20" style="text;html=1;align=center;verticalAlign=middle;whiteSpace=wrap;rounded=0;" vertex="1" parent="1">
          <mxGeometry x="948.5" y="478" width="60" height="30" as="geometry" />
        </mxCell>
        <mxCell id="VhcnRzQDHe9ZI1hMgf6_-68" value="" style="endArrow=none;html=1;rounded=0;" edge="1" parent="1">
          <mxGeometry width="50" height="50" relative="1" as="geometry">
            <mxPoint x="1107" y="504" as="sourcePoint" />
            <mxPoint x="1107" y="443" as="targetPoint" />
          </mxGeometry>
        </mxCell>
        <mxCell id="VhcnRzQDHe9ZI1hMgf6_-69" value="" style="endArrow=none;html=1;rounded=0;" edge="1" parent="1">
          <mxGeometry width="50" height="50" relative="1" as="geometry">
            <mxPoint x="1066" y="475" as="sourcePoint" />
            <mxPoint x="1151" y="475" as="targetPoint" />
          </mxGeometry>
        </mxCell>
        <mxCell id="VhcnRzQDHe9ZI1hMgf6_-70" value="20" style="text;html=1;align=center;verticalAlign=middle;whiteSpace=wrap;rounded=0;" vertex="1" parent="1">
          <mxGeometry x="1053" y="442" width="60" height="30" as="geometry" />
        </mxCell>
        <mxCell id="VhcnRzQDHe9ZI1hMgf6_-71" value="22" style="text;html=1;align=center;verticalAlign=middle;whiteSpace=wrap;rounded=0;" vertex="1" parent="1">
          <mxGeometry x="1098" y="442" width="60" height="30" as="geometry" />
        </mxCell>
        <mxCell id="VhcnRzQDHe9ZI1hMgf6_-72" value="20" style="text;html=1;align=center;verticalAlign=middle;whiteSpace=wrap;rounded=0;" vertex="1" parent="1">
          <mxGeometry x="1055" y="480" width="60" height="30" as="geometry" />
        </mxCell>
        <mxCell id="VhcnRzQDHe9ZI1hMgf6_-73" value="22" style="text;html=1;align=center;verticalAlign=middle;whiteSpace=wrap;rounded=0;" vertex="1" parent="1">
          <mxGeometry x="1098" y="480" width="60" height="30" as="geometry" />
        </mxCell>
        <mxCell id="VhcnRzQDHe9ZI1hMgf6_-74" value="" style="endArrow=none;html=1;rounded=0;" edge="1" parent="1">
          <mxGeometry width="50" height="50" relative="1" as="geometry">
            <mxPoint x="1260" y="337" as="sourcePoint" />
            <mxPoint x="1260" y="276" as="targetPoint" />
          </mxGeometry>
        </mxCell>
        <mxCell id="VhcnRzQDHe9ZI1hMgf6_-75" value="" style="endArrow=none;html=1;rounded=0;" edge="1" parent="1">
          <mxGeometry width="50" height="50" relative="1" as="geometry">
            <mxPoint x="1219" y="308" as="sourcePoint" />
            <mxPoint x="1304" y="308" as="targetPoint" />
          </mxGeometry>
        </mxCell>
        <mxCell id="VhcnRzQDHe9ZI1hMgf6_-76" value="22" style="text;html=1;align=center;verticalAlign=middle;whiteSpace=wrap;rounded=0;" vertex="1" parent="1">
          <mxGeometry x="1206" y="275" width="60" height="30" as="geometry" />
        </mxCell>
        <mxCell id="VhcnRzQDHe9ZI1hMgf6_-77" value="32" style="text;html=1;align=center;verticalAlign=middle;whiteSpace=wrap;rounded=0;" vertex="1" parent="1">
          <mxGeometry x="1251" y="275" width="60" height="30" as="geometry" />
        </mxCell>
        <mxCell id="VhcnRzQDHe9ZI1hMgf6_-78" value="23" style="text;html=1;align=center;verticalAlign=middle;whiteSpace=wrap;rounded=0;" vertex="1" parent="1">
          <mxGeometry x="1208" y="313" width="60" height="30" as="geometry" />
        </mxCell>
        <mxCell id="VhcnRzQDHe9ZI1hMgf6_-79" value="33" style="text;html=1;align=center;verticalAlign=middle;whiteSpace=wrap;rounded=0;" vertex="1" parent="1">
          <mxGeometry x="1251" y="313" width="60" height="30" as="geometry" />
        </mxCell>
        <mxCell id="VhcnRzQDHe9ZI1hMgf6_-80" value="" style="endArrow=none;html=1;rounded=0;" edge="1" parent="1">
          <mxGeometry width="50" height="50" relative="1" as="geometry">
            <mxPoint x="1258" y="645" as="sourcePoint" />
            <mxPoint x="1258" y="584" as="targetPoint" />
          </mxGeometry>
        </mxCell>
        <mxCell id="VhcnRzQDHe9ZI1hMgf6_-81" value="" style="endArrow=none;html=1;rounded=0;" edge="1" parent="1">
          <mxGeometry width="50" height="50" relative="1" as="geometry">
            <mxPoint x="1217" y="616" as="sourcePoint" />
            <mxPoint x="1302" y="616" as="targetPoint" />
          </mxGeometry>
        </mxCell>
        <mxCell id="VhcnRzQDHe9ZI1hMgf6_-82" value="22" style="text;html=1;align=center;verticalAlign=middle;whiteSpace=wrap;rounded=0;" vertex="1" parent="1">
          <mxGeometry x="1204" y="583" width="60" height="30" as="geometry" />
        </mxCell>
        <mxCell id="VhcnRzQDHe9ZI1hMgf6_-83" value="47" style="text;html=1;align=center;verticalAlign=middle;whiteSpace=wrap;rounded=0;" vertex="1" parent="1">
          <mxGeometry x="1249" y="583" width="60" height="30" as="geometry" />
        </mxCell>
        <mxCell id="VhcnRzQDHe9ZI1hMgf6_-84" value="22" style="text;html=1;align=center;verticalAlign=middle;whiteSpace=wrap;rounded=0;" vertex="1" parent="1">
          <mxGeometry x="1206" y="621" width="60" height="30" as="geometry" />
        </mxCell>
        <mxCell id="VhcnRzQDHe9ZI1hMgf6_-85" value="47" style="text;html=1;align=center;verticalAlign=middle;whiteSpace=wrap;rounded=0;" vertex="1" parent="1">
          <mxGeometry x="1249" y="621" width="60" height="30" as="geometry" />
        </mxCell>
        <mxCell id="VhcnRzQDHe9ZI1hMgf6_-86" value="" style="endArrow=none;html=1;rounded=0;" edge="1" parent="1">
          <mxGeometry width="50" height="50" relative="1" as="geometry">
            <mxPoint x="1356.5" y="504" as="sourcePoint" />
            <mxPoint x="1356.5" y="443" as="targetPoint" />
          </mxGeometry>
        </mxCell>
        <mxCell id="VhcnRzQDHe9ZI1hMgf6_-87" value="" style="endArrow=none;html=1;rounded=0;" edge="1" parent="1">
          <mxGeometry width="50" height="50" relative="1" as="geometry">
            <mxPoint x="1315.5" y="475" as="sourcePoint" />
            <mxPoint x="1400.5" y="475" as="targetPoint" />
          </mxGeometry>
        </mxCell>
        <mxCell id="VhcnRzQDHe9ZI1hMgf6_-88" value="22" style="text;html=1;align=center;verticalAlign=middle;whiteSpace=wrap;rounded=0;" vertex="1" parent="1">
          <mxGeometry x="1302.5" y="442" width="60" height="30" as="geometry" />
        </mxCell>
        <mxCell id="VhcnRzQDHe9ZI1hMgf6_-89" value="24" style="text;html=1;align=center;verticalAlign=middle;whiteSpace=wrap;rounded=0;" vertex="1" parent="1">
          <mxGeometry x="1347.5" y="442" width="60" height="30" as="geometry" />
        </mxCell>
        <mxCell id="VhcnRzQDHe9ZI1hMgf6_-90" value="35" style="text;html=1;align=center;verticalAlign=middle;whiteSpace=wrap;rounded=0;" vertex="1" parent="1">
          <mxGeometry x="1304.5" y="480" width="60" height="30" as="geometry" />
        </mxCell>
        <mxCell id="VhcnRzQDHe9ZI1hMgf6_-91" value="37" style="text;html=1;align=center;verticalAlign=middle;whiteSpace=wrap;rounded=0;" vertex="1" parent="1">
          <mxGeometry x="1347.5" y="480" width="60" height="30" as="geometry" />
        </mxCell>
        <mxCell id="VhcnRzQDHe9ZI1hMgf6_-92" value="" style="endArrow=none;html=1;rounded=0;" edge="1" parent="1">
          <mxGeometry width="50" height="50" relative="1" as="geometry">
            <mxPoint x="1453.5" y="336" as="sourcePoint" />
            <mxPoint x="1453.5" y="275" as="targetPoint" />
          </mxGeometry>
        </mxCell>
        <mxCell id="VhcnRzQDHe9ZI1hMgf6_-93" value="" style="endArrow=none;html=1;rounded=0;" edge="1" parent="1">
          <mxGeometry width="50" height="50" relative="1" as="geometry">
            <mxPoint x="1412.5" y="307" as="sourcePoint" />
            <mxPoint x="1497.5" y="307" as="targetPoint" />
          </mxGeometry>
        </mxCell>
        <mxCell id="VhcnRzQDHe9ZI1hMgf6_-94" value="32" style="text;html=1;align=center;verticalAlign=middle;whiteSpace=wrap;rounded=0;" vertex="1" parent="1">
          <mxGeometry x="1399.5" y="274" width="60" height="30" as="geometry" />
        </mxCell>
        <mxCell id="VhcnRzQDHe9ZI1hMgf6_-95" value="46" style="text;html=1;align=center;verticalAlign=middle;whiteSpace=wrap;rounded=0;" vertex="1" parent="1">
          <mxGeometry x="1444.5" y="274" width="60" height="30" as="geometry" />
        </mxCell>
        <mxCell id="VhcnRzQDHe9ZI1hMgf6_-96" value="33" style="text;html=1;align=center;verticalAlign=middle;whiteSpace=wrap;rounded=0;" vertex="1" parent="1">
          <mxGeometry x="1401.5" y="312" width="60" height="30" as="geometry" />
        </mxCell>
        <mxCell id="VhcnRzQDHe9ZI1hMgf6_-97" value="" style="endArrow=none;html=1;rounded=0;" edge="1" parent="1">
          <mxGeometry width="50" height="50" relative="1" as="geometry">
            <mxPoint x="1527.5" y="502" as="sourcePoint" />
            <mxPoint x="1527.5" y="441" as="targetPoint" />
          </mxGeometry>
        </mxCell>
        <mxCell id="VhcnRzQDHe9ZI1hMgf6_-98" value="" style="endArrow=none;html=1;rounded=0;" edge="1" parent="1">
          <mxGeometry width="50" height="50" relative="1" as="geometry">
            <mxPoint x="1486.5" y="473" as="sourcePoint" />
            <mxPoint x="1571.5" y="473" as="targetPoint" />
          </mxGeometry>
        </mxCell>
        <mxCell id="VhcnRzQDHe9ZI1hMgf6_-99" value="24" style="text;html=1;align=center;verticalAlign=middle;whiteSpace=wrap;rounded=0;" vertex="1" parent="1">
          <mxGeometry x="1473.5" y="440" width="60" height="30" as="geometry" />
        </mxCell>
        <mxCell id="VhcnRzQDHe9ZI1hMgf6_-100" value="26" style="text;html=1;align=center;verticalAlign=middle;whiteSpace=wrap;rounded=0;" vertex="1" parent="1">
          <mxGeometry x="1518.5" y="440" width="60" height="30" as="geometry" />
        </mxCell>
        <mxCell id="VhcnRzQDHe9ZI1hMgf6_-101" value="37" style="text;html=1;align=center;verticalAlign=middle;whiteSpace=wrap;rounded=0;" vertex="1" parent="1">
          <mxGeometry x="1475.5" y="478" width="60" height="30" as="geometry" />
        </mxCell>
        <mxCell id="VhcnRzQDHe9ZI1hMgf6_-102" value="39" style="text;html=1;align=center;verticalAlign=middle;whiteSpace=wrap;rounded=0;" vertex="1" parent="1">
          <mxGeometry x="1518.5" y="478" width="60" height="30" as="geometry" />
        </mxCell>
        <mxCell id="VhcnRzQDHe9ZI1hMgf6_-103" value="" style="endArrow=none;html=1;rounded=0;" edge="1" parent="1">
          <mxGeometry width="50" height="50" relative="1" as="geometry">
            <mxPoint x="1698.5" y="502" as="sourcePoint" />
            <mxPoint x="1698.5" y="441" as="targetPoint" />
          </mxGeometry>
        </mxCell>
        <mxCell id="VhcnRzQDHe9ZI1hMgf6_-104" value="" style="endArrow=none;html=1;rounded=0;" edge="1" parent="1">
          <mxGeometry width="50" height="50" relative="1" as="geometry">
            <mxPoint x="1657.5" y="473" as="sourcePoint" />
            <mxPoint x="1742.5" y="473" as="targetPoint" />
          </mxGeometry>
        </mxCell>
        <mxCell id="VhcnRzQDHe9ZI1hMgf6_-105" value="26" style="text;html=1;align=center;verticalAlign=middle;whiteSpace=wrap;rounded=0;" vertex="1" parent="1">
          <mxGeometry x="1644.5" y="440" width="60" height="30" as="geometry" />
        </mxCell>
        <mxCell id="VhcnRzQDHe9ZI1hMgf6_-106" value="34" style="text;html=1;align=center;verticalAlign=middle;whiteSpace=wrap;rounded=0;" vertex="1" parent="1">
          <mxGeometry x="1689.5" y="440" width="60" height="30" as="geometry" />
        </mxCell>
        <mxCell id="VhcnRzQDHe9ZI1hMgf6_-107" value="39" style="text;html=1;align=center;verticalAlign=middle;whiteSpace=wrap;rounded=0;" vertex="1" parent="1">
          <mxGeometry x="1646.5" y="478" width="60" height="30" as="geometry" />
        </mxCell>
        <mxCell id="VhcnRzQDHe9ZI1hMgf6_-108" value="47" style="text;html=1;align=center;verticalAlign=middle;whiteSpace=wrap;rounded=0;" vertex="1" parent="1">
          <mxGeometry x="1689.5" y="478" width="60" height="30" as="geometry" />
        </mxCell>
        <mxCell id="VhcnRzQDHe9ZI1hMgf6_-109" value="&lt;div&gt;Final&lt;/div&gt;" style="ellipse;whiteSpace=wrap;html=1;fillColor=light-dark(#FFFFFF,#660000);" vertex="1" parent="1">
          <mxGeometry x="1797.55" y="518" width="120" height="80" as="geometry" />
        </mxCell>
        <mxCell id="VhcnRzQDHe9ZI1hMgf6_-110" value="" style="endArrow=none;html=1;rounded=0;" edge="1" parent="1">
          <mxGeometry width="50" height="50" relative="1" as="geometry">
            <mxPoint x="1859.05" y="502" as="sourcePoint" />
            <mxPoint x="1859.05" y="441" as="targetPoint" />
          </mxGeometry>
        </mxCell>
        <mxCell id="VhcnRzQDHe9ZI1hMgf6_-111" value="" style="endArrow=none;html=1;rounded=0;" edge="1" parent="1">
          <mxGeometry width="50" height="50" relative="1" as="geometry">
            <mxPoint x="1818.05" y="473" as="sourcePoint" />
            <mxPoint x="1903.05" y="473" as="targetPoint" />
          </mxGeometry>
        </mxCell>
        <mxCell id="VhcnRzQDHe9ZI1hMgf6_-112" value="47" style="text;html=1;align=center;verticalAlign=middle;whiteSpace=wrap;rounded=0;" vertex="1" parent="1">
          <mxGeometry x="1805.05" y="440" width="60" height="30" as="geometry" />
        </mxCell>
        <mxCell id="VhcnRzQDHe9ZI1hMgf6_-113" value="47" style="text;html=1;align=center;verticalAlign=middle;whiteSpace=wrap;rounded=0;" vertex="1" parent="1">
          <mxGeometry x="1850.05" y="440" width="60" height="30" as="geometry" />
        </mxCell>
        <mxCell id="VhcnRzQDHe9ZI1hMgf6_-114" value="47" style="text;html=1;align=center;verticalAlign=middle;whiteSpace=wrap;rounded=0;" vertex="1" parent="1">
          <mxGeometry x="1807.05" y="478" width="60" height="30" as="geometry" />
        </mxCell>
        <mxCell id="VhcnRzQDHe9ZI1hMgf6_-115" value="47" style="text;html=1;align=center;verticalAlign=middle;whiteSpace=wrap;rounded=0;" vertex="1" parent="1">
          <mxGeometry x="1850.05" y="478" width="60" height="30" as="geometry" />
        </mxCell>
        <mxCell id="VhcnRzQDHe9ZI1hMgf6_-116" value="47" style="text;html=1;align=center;verticalAlign=middle;whiteSpace=wrap;rounded=0;" vertex="1" parent="1">
          <mxGeometry x="1444.5" y="312" width="60" height="30" as="geometry" />
        </mxCell>
        <mxCell id="VhcnRzQDHe9ZI1hMgf6_-117" value="H = 0" style="text;html=1;align=center;verticalAlign=middle;whiteSpace=wrap;rounded=0;fontSize=16;" vertex="1" parent="1">
          <mxGeometry x="1827.55" y="380" width="60" height="30" as="geometry" />
        </mxCell>
        <mxCell id="VhcnRzQDHe9ZI1hMgf6_-118" value="H = 0" style="text;html=1;align=center;verticalAlign=middle;whiteSpace=wrap;rounded=0;fontSize=16;" vertex="1" parent="1">
          <mxGeometry x="1075.5" y="400" width="60" height="30" as="geometry" />
        </mxCell>
        <mxCell id="VhcnRzQDHe9ZI1hMgf6_-119" value="H = 0" style="text;html=1;align=center;verticalAlign=middle;whiteSpace=wrap;rounded=0;fontSize=16;" vertex="1" parent="1">
          <mxGeometry x="924" y="400" width="60" height="30" as="geometry" />
        </mxCell>
        <mxCell id="VhcnRzQDHe9ZI1hMgf6_-120" value="H = 0" style="text;html=1;align=center;verticalAlign=middle;whiteSpace=wrap;rounded=0;fontSize=16;" vertex="1" parent="1">
          <mxGeometry x="772" y="400" width="60" height="30" as="geometry" />
        </mxCell>
        <mxCell id="VhcnRzQDHe9ZI1hMgf6_-121" value="H = 0" style="text;html=1;align=center;verticalAlign=middle;whiteSpace=wrap;rounded=0;fontSize=16;" vertex="1" parent="1">
          <mxGeometry x="611.55" y="400" width="60" height="30" as="geometry" />
        </mxCell>
        <mxCell id="VhcnRzQDHe9ZI1hMgf6_-122" value="H = 0" style="text;html=1;align=center;verticalAlign=middle;whiteSpace=wrap;rounded=0;fontSize=16;" vertex="1" parent="1">
          <mxGeometry x="467" y="400" width="60" height="30" as="geometry" />
        </mxCell>
        <mxCell id="VhcnRzQDHe9ZI1hMgf6_-123" value="H = 0" style="text;html=1;align=center;verticalAlign=middle;whiteSpace=wrap;rounded=0;fontSize=16;" vertex="1" parent="1">
          <mxGeometry x="310" y="400" width="60" height="30" as="geometry" />
        </mxCell>
        <mxCell id="VhcnRzQDHe9ZI1hMgf6_-124" value="H = 0" style="text;html=1;align=center;verticalAlign=middle;whiteSpace=wrap;rounded=0;fontSize=16;" vertex="1" parent="1">
          <mxGeometry x="1235" y="785" width="60" height="30" as="geometry" />
        </mxCell>
        <mxCell id="VhcnRzQDHe9ZI1hMgf6_-125" value="H = 13" style="text;html=1;align=center;verticalAlign=middle;whiteSpace=wrap;rounded=0;fontSize=16;" vertex="1" parent="1">
          <mxGeometry x="1667" y="642" width="60" height="30" as="geometry" />
        </mxCell>
        <mxCell id="VhcnRzQDHe9ZI1hMgf6_-126" value="H = 13" style="text;html=1;align=center;verticalAlign=middle;whiteSpace=wrap;rounded=0;fontSize=16;" vertex="1" parent="1">
          <mxGeometry x="1500" y="642" width="60" height="30" as="geometry" />
        </mxCell>
        <mxCell id="VhcnRzQDHe9ZI1hMgf6_-127" value="H = 13" style="text;html=1;align=center;verticalAlign=middle;whiteSpace=wrap;rounded=0;fontSize=16;" vertex="1" parent="1">
          <mxGeometry x="1339.5" y="642" width="60" height="30" as="geometry" />
        </mxCell>
        <mxCell id="VhcnRzQDHe9ZI1hMgf6_-128" value="H = 1" style="text;html=1;align=center;verticalAlign=middle;whiteSpace=wrap;rounded=0;fontSize=16;" vertex="1" parent="1">
          <mxGeometry x="1422" y="230" width="60" height="30" as="geometry" />
        </mxCell>
        <mxCell id="VhcnRzQDHe9ZI1hMgf6_-129" value="H = 1" style="text;html=1;align=center;verticalAlign=middle;whiteSpace=wrap;rounded=0;fontSize=16;" vertex="1" parent="1">
          <mxGeometry x="1231" y="230" width="60" height="30" as="geometry" />
        </mxCell>
      </root>
    </mxGraphModel>
  </diagram>
</mxfile>
